<?xml version="1.0" standalone="no"?>
<!DOCTYPE svg PUBLIC "-//W3C//DTD SVG 20010904//EN"
 "http://www.w3.org/TR/2001/REC-SVG-20010904/DTD/svg10.dtd">
<svg version="1.0" xmlns="http://www.w3.org/2000/svg"
 width="1542.000000pt" height="353.000000pt" viewBox="0 0 1542.000000 353.000000"
 preserveAspectRatio="xMidYMid meet">

<g transform="translate(0.000000,353.000000) scale(0.100000,-0.100000)"
fill="#000000" stroke="none">
<path d="M463 3512 l-43 -3 20 -39 c11 -22 20 -42 20 -45 0 -3 -101 -5 -225
-5 -124 0 -225 -3 -225 -7 0 -3 15 -34 33 -67 19 -34 65 -117 103 -186 37 -69
74 -129 81 -133 7 -4 13 -15 13 -23 0 -20 35 -88 54 -103 9 -8 16 -19 16 -27
0 -7 27 -63 60 -124 33 -61 60 -113 60 -116 0 -2 -31 -4 -70 -4 -48 0 -70 -4
-70 -12 0 -7 28 -64 63 -127 35 -64 72 -133 82 -155 11 -21 28 -43 38 -50 9
-6 17 -19 17 -29 0 -23 19 -60 37 -70 7 -5 11 -12 9 -16 -6 -9 12 -46 58 -124
16 -26 26 -51 23 -54 -4 -3 -38 -8 -77 -11 -38 -2 -70 -8 -70 -11 0 -4 6 -15
13 -26 8 -11 36 -62 62 -112 27 -52 56 -95 66 -98 12 -4 19 -16 19 -32 0 -26
65 -151 88 -168 7 -6 12 -15 10 -20 -1 -6 16 -47 40 -92 23 -44 42 -84 42 -87
0 -3 -11 -6 -24 -6 -13 0 -26 -5 -28 -12 -3 -7 -9 -8 -18 -3 -17 11 -80 12
-80 2 0 -11 90 -169 108 -190 9 -10 17 -24 18 -32 1 -8 58 -111 126 -229 l123
-215 1365 -3 c2186 -4 2800 -8 2800 -17 0 -8 -52 -121 -135 -296 -67 -141
-135 -292 -135 -298 0 -4 165 -5 368 -4 202 1 1059 -2 1905 -6 1258 -7 1537
-6 1537 5 0 10 2 10 9 0 7 -11 42 -13 164 -11 86 2 159 0 163 -4 9 -9 158 -10
167 -1 3 4 94 6 202 5 136 -2 195 1 190 8 -3 6 -1 11 4 11 6 0 11 -5 11 -11 0
-8 28 -10 95 -7 53 3 98 1 101 -3 6 -11 634 -12 634 -1 0 17 -225 450 -246
473 -13 14 -24 34 -24 45 0 10 -9 36 -20 57 -11 20 -20 39 -20 42 0 3 220 5
489 5 316 0 492 4 496 10 8 13 52 13 60 0 9 -15 318 -13 333 2 9 9 18 9 37 0
19 -9 375 -12 1418 -12 l1393 0 57 109 c31 59 57 114 57 121 0 8 8 23 19 34
10 12 28 41 41 66 35 69 41 80 83 150 34 55 107 190 107 198 0 1 -26 2 -57 2
-32 0 -68 3 -81 6 -21 6 -22 8 -7 30 31 47 65 113 65 125 0 7 8 22 18 33 17
19 242 439 242 451 0 3 -31 5 -70 5 -38 0 -70 3 -70 8 0 17 27 81 40 97 27 33
181 311 187 338 3 15 9 27 13 27 8 0 100 161 100 174 0 3 -34 6 -76 6 -74 0
-75 1 -68 22 4 13 18 37 31 55 14 18 46 72 72 120 129 239 185 340 201 363 10
14 25 41 35 60 9 19 31 64 49 100 l33 65 -218 3 c-141 1 -219 6 -219 13 0 5 9
28 21 50 l20 40 -68 -1 c-37 0 -216 -1 -397 -1 -184 0 -338 -4 -347 -10 -25
-13 -50 -11 -84 7 -27 14 -112 15 -885 8 -470 -4 -871 -7 -890 -6 -19 1 -120
1 -225 0 -225 -1 -175 -1 -465 2 -129 1 -336 2 -460 1 -124 0 -245 0 -270 0
-25 0 -238 0 -475 -1 -236 0 -638 2 -892 6 l-461 6 -7 -21 c-6 -20 -13 -21
-150 -21 -135 0 -143 1 -148 20 -5 20 -12 21 -112 18 -58 -1 -108 -5 -111 -10
-3 -4 -17 -3 -31 3 -15 6 -36 8 -48 5 -20 -5 -165 -5 -560 0 l-190 3 -28 -32
-27 -32 -21 28 c-20 26 -26 28 -88 27 -36 -1 -74 1 -84 5 -10 4 -36 5 -58 1
-23 -4 -220 -6 -440 -6 -348 0 -399 -2 -399 -15 0 -22 -288 -22 -296 0 -5 13
-307 15 -2573 16 -2776 2 -2868 1 -2891 -11 -9 -5 -23 -4 -33 2 -17 9 -257 16
-344 10z m634 -18 c-3 -3 -12 -4 -19 -1 -8 3 -5 6 6 6 11 1 17 -2 13 -5z m40
0 c-3 -3 -12 -4 -19 -1 -8 3 -5 6 6 6 11 1 17 -2 13 -5z m133 -4 c-8 -5 -22
-9 -30 -9 -10 0 -8 3 5 9 27 12 43 12 25 0z m63 3 c-7 -2 -19 -2 -25 0 -7 3
-2 5 12 5 14 0 19 -2 13 -5z m3040 0 c-7 -2 -19 -2 -25 0 -7 3 -2 5 12 5 14 0
19 -2 13 -5z m480 0 c-7 -2 -19 -2 -25 0 -7 3 -2 5 12 5 14 0 19 -2 13 -5z
m257 -3 c0 -5 -4 -10 -10 -10 -5 0 -10 5 -10 10 0 6 5 10 10 10 6 0 10 -4 10
-10z m2579 -69 c-1 -13 -2 -12 -6 2 -2 9 -9 14 -15 11 -6 -4 -8 -2 -4 4 3 6 2
13 -3 16 -5 3 -12 -1 -15 -10 -3 -8 -11 -12 -17 -8 -8 4 -9 3 -5 -5 4 -6 11
-9 15 -7 4 3 13 0 21 -5 13 -8 13 -10 0 -20 -12 -8 -10 -9 8 -4 21 6 22 4 22
-70 l0 -77 -51 61 c-41 50 -49 64 -39 76 6 8 9 19 5 25 -4 7 1 29 10 51 l18
39 29 -32 c15 -17 27 -39 27 -47z m178 73 c-3 -3 -12 -4 -19 -1 -8 3 -5 6 6 6
11 1 17 -2 13 -5z m1262 -1 c-4 -26 3 -35 11 -15 l9 22 248 -1 c136 -1 238 -4
226 -6 -29 -6 -29 -17 -1 -43 l22 -20 -28 0 c-16 0 -25 -4 -21 -10 4 -6 9 -9
13 -6 4 2 16 0 27 -5 16 -6 15 -7 -10 -7 -16 1 -36 6 -42 11 -9 6 -13 6 -13
-1 0 -6 5 -14 10 -17 6 -3 10 -13 10 -21 0 -10 -8 -13 -30 -9 -19 3 -30 1 -30
-6 0 -7 -10 -9 -27 -4 -52 13 -63 14 -68 4 -4 -5 -18 -9 -32 -9 -35 0 -21 -12
30 -27 24 -6 33 -11 21 -12 -12 -1 -41 6 -65 14 -28 10 -73 15 -122 14 l-79
-2 -29 -46 c-16 -25 -29 -54 -29 -63 0 -9 -4 -20 -10 -23 -8 -5 -81 -148 -92
-180 -11 -35 -92 -174 -98 -170 -5 3 -6 -4 -3 -15 4 -14 0 -20 -10 -20 -9 0
-21 -9 -26 -19 -10 -19 -86 -61 -109 -61 -6 0 -9 7 -6 15 4 8 10 12 15 9 5 -3
5 5 0 18 -9 25 6 60 197 448 55 113 103 220 107 238 4 18 13 32 21 32 8 0 13
-3 13 -7z m1014 0 c-7 -2 -21 -2 -30 0 -10 3 -4 5 12 5 17 0 24 -2 18 -5z
m1268 -24 c-5 -13 -10 -19 -10 -12 -1 15 10 45 15 40 3 -2 0 -15 -5 -28z m245
24 c-10 -10 -46 -11 -46 -1 0 4 12 8 27 8 14 0 23 -3 19 -7z m147 0 c-13 -2
-33 -2 -45 0 -13 2 -3 4 22 4 25 0 35 -2 23 -4z m445 0 c-10 -2 -28 -2 -40 0
-13 2 -5 4 17 4 22 1 32 -1 23 -4z m-5091 -9 c-3 -3 -12 -4 -19 -1 -8 3 -5 6
6 6 11 1 17 -2 13 -5z m3378 -40 c21 -18 23 -22 8 -15 -12 6 -25 16 -29 22 -5
8 -9 8 -14 -1 -5 -9 -9 -9 -14 -1 -4 6 -2 11 5 11 7 0 4 7 -7 16 -19 15 -19
15 1 5 11 -6 34 -22 50 -37z m1053 -1 c23 -10 24 -11 6 -12 -11 -1 -33 14 -50
31 -18 21 -21 26 -6 13 13 -11 36 -25 50 -32z m742 37 c0 -5 -5 -10 -11 -10
-5 0 -7 5 -4 10 3 6 8 10 11 10 2 0 4 -4 4 -10z m-7387 -7 c-7 -2 -19 -2 -25
0 -7 3 -2 5 12 5 14 0 19 -2 13 -5z m4807 3 c0 -2 -7 -6 -15 -10 -8 -3 -15 -1
-15 4 0 6 7 10 15 10 8 0 15 -2 15 -4z m1368 -25 c-13 -15 -25 -27 -27 -25 -4
4 39 54 47 54 2 0 -7 -13 -20 -29z m1102 13 c0 -3 -13 -3 -28 -2 -33 2 -52 -8
-52 -28 0 -16 -2 -16 -24 -8 -14 5 -12 9 7 24 12 9 29 19 37 22 15 5 60 -1 60
-8z m-5827 -5 l42 -2 -35 -6 -35 -6 38 -23 c20 -13 37 -26 37 -29 0 -6 -31 13
-90 55 -19 13 -27 22 -17 18 10 -3 37 -7 60 -7z m5900 4 c-7 -2 -19 -2 -25 0
-7 3 -2 5 12 5 14 0 19 -2 13 -5z m-10956 -18 c4 -4 0 -5 -9 -2 -10 3 -20 3
-22 -2 -6 -9 -164 -7 -171 3 -3 3 -2 4 1 2 3 -2 17 -1 32 4 35 10 159 7 169
-5z m7592 -7 c0 -13 -3 -17 -6 -10 -2 6 -11 12 -19 12 -8 0 -14 5 -14 10 0 6
9 10 20 10 14 0 20 -6 19 -22z m141 18 c0 -3 -109 -71 -135 -84 -29 -15 12 16
67 49 64 40 68 42 68 35z m824 -11 c-6 -16 -24 -21 -24 -7 0 11 11 22 21 22 5
0 6 -7 3 -15z m-3421 -2 c-7 -2 -19 -2 -25 0 -7 3 -2 5 12 5 14 0 19 -2 13 -5z
m2227 3 c0 -2 -8 -10 -17 -17 -16 -13 -17 -12 -4 4 13 16 21 21 21 13z m300
-6 c0 -5 -5 -10 -11 -10 -5 0 -7 5 -4 10 3 6 8 10 11 10 2 0 4 -4 4 -10z m675
0 c3 -5 -1 -10 -9 -10 -9 0 -16 5 -16 10 0 6 4 10 9 10 6 0 13 -4 16 -10z
m2560 0 c3 -5 1 -10 -4 -10 -6 0 -11 5 -11 10 0 6 2 10 4 10 3 0 8 -4 11 -10z
m45 6 c0 -2 -7 -7 -16 -10 -8 -3 -12 -2 -9 4 6 10 25 14 25 6z m-527 -13 c-26
-5 -55 -41 -46 -57 3 -6 0 -5 -7 1 -11 11 -10 17 10 38 13 14 33 24 44 24 19
-2 19 -2 -1 -6z m1167 -3 c0 -5 -4 -10 -10 -10 -5 0 -10 5 -10 10 0 6 5 10 10
10 6 0 10 -4 10 -10z m30 6 c0 -3 -4 -8 -10 -11 -5 -3 -10 -1 -10 4 0 6 5 11
10 11 6 0 10 -2 10 -4z m-3060 -15 c24 -4 -20 -19 -55 -20 -23 -1 -27 -4 -15
-11 17 -11 9 -13 -15 -3 -16 5 -15 8 5 23 21 16 32 17 80 11z m723 2 c-7 -2
-19 -2 -25 0 -7 3 -2 5 12 5 14 0 19 -2 13 -5z m777 -8 c-7 -8 -10 -26 -8 -40
8 -37 -12 -46 -94 -42 l-73 3 78 2 77 2 0 33 c0 18 5 38 12 45 17 17 23 15 8
-3z m63 8 c-7 -2 -21 -2 -30 0 -10 3 -4 5 12 5 17 0 24 -2 18 -5z m197 -3 c8
-5 11 -10 5 -10 -5 0 -17 5 -25 10 -8 5 -10 10 -5 10 6 0 17 -5 25 -10z m256
-21 c12 -24 18 -29 24 -18 5 7 12 10 17 6 4 -5 1 -12 -7 -17 -39 -24 56 -41
230 -42 l85 -1 -63 -15 c-57 -14 -66 -14 -98 1 -48 23 -151 23 -178 0 -20 -17
-20 -17 -7 0 12 16 9 17 -45 19 l-59 2 58 3 c32 2 55 8 52 13 -3 4 -15 6 -28
4 l-22 -5 23 11 c22 9 22 11 7 40 -8 16 -13 30 -11 30 3 0 13 -14 22 -31z
m139 11 c-11 -4 -36 -6 -55 -4 -19 2 -29 1 -22 -2 6 -3 12 -10 12 -15 0 -5
-10 -3 -23 6 -13 8 -26 13 -29 9 -3 -3 -9 -1 -12 5 -4 6 2 8 15 6 12 -3 28 -1
35 3 8 4 33 6 56 3 32 -3 38 -6 23 -11z m-4209 -5 c-5 -13 16 -15 150 -14 86
0 159 -2 162 -5 3 -3 -69 -6 -160 -6 -141 0 -167 2 -172 16 -3 8 -2 12 4 9 6
-3 10 -1 10 4 0 6 3 11 6 11 3 0 4 -7 0 -15z m2839 -5 c17 -11 26 -20 22 -20
-11 0 -67 29 -67 35 0 10 16 4 45 -15z m-3086 -13 c-10 -10 -35 -11 -94 -6
l-80 6 78 0 c45 0 83 5 89 11 7 7 14 9 17 7 3 -3 -2 -11 -10 -18z m3481 3 c-6
-11 -13 -20 -16 -20 -2 0 0 9 6 20 6 11 13 20 16 20 2 0 0 -9 -6 -20z m1190
10 c0 -5 -4 -10 -10 -10 -5 0 -10 5 -10 10 0 6 5 10 10 10 6 0 10 -4 10 -10z
m636 3 c-11 -11 -46 -14 -46 -3 0 6 12 10 27 10 14 0 23 -3 19 -7z m-5770 -21
c-10 -2 -22 0 -28 6 -6 6 0 7 19 4 21 -5 23 -7 9 -10z m1074 14 c0 -2 -7 -7
-16 -10 -8 -3 -12 -2 -9 4 6 10 25 14 25 6z m-1700 -36 c14 -10 40 -18 59 -18
46 -1 53 -12 8 -12 -41 0 -42 -1 -27 -33 10 -21 10 -21 -2 -2 -7 11 -31 38
-53 60 -39 38 -36 39 15 5z m418 23 c-21 -2 -55 -2 -75 0 -21 2 -4 4 37 4 41
0 58 -2 38 -4z m360 0 c-10 -2 -26 -2 -35 0 -10 3 -2 5 17 5 19 0 27 -2 18 -5z
m105 0 c-13 -2 -33 -2 -45 0 -13 2 -3 4 22 4 25 0 35 -2 23 -4z m875 0 c-10
-2 -26 -2 -35 0 -10 3 -2 5 17 5 19 0 27 -2 18 -5z m140 0 c-21 -2 -57 -2 -80
0 -24 2 -7 4 37 4 44 0 63 -2 43 -4z m135 0 c-18 -2 -48 -2 -65 0 -18 2 -4 4
32 4 36 0 50 -2 33 -4z m3508 -26 c-8 -8 -11 -7 -11 4 0 20 13 34 18 19 3 -7
-1 -17 -7 -23z m-2351 19 c0 -2 -7 -6 -15 -10 -8 -3 -15 -1 -15 4 0 6 7 10 15
10 8 0 15 -2 15 -4z m1058 -26 c17 -29 0 -24 -21 5 -11 16 -13 23 -5 20 8 -3
19 -14 26 -25z m882 20 c0 -5 -2 -10 -4 -10 -3 0 -8 5 -11 10 -3 6 -1 10 4 10
6 0 11 -4 11 -10z m514 -1 c-2 -4 -13 -7 -24 -6 -10 1 -17 4 -14 8 2 4 13 7
24 6 10 -1 17 -4 14 -8z m749 -6 c-3 -7 -9 -10 -14 -7 -14 8 -11 21 5 21 8 0
12 -6 9 -14z m-6658 -12 c-4 -13 9 -49 35 -100 22 -45 38 -81 35 -81 -3 0 -23
37 -46 81 l-40 81 -167 -5 c-101 -3 -145 -2 -112 3 30 4 106 8 168 9 90 1 114
4 118 16 9 22 16 18 9 -4z m2669 1 c-12 -9 -29 -30 -39 -47 -9 -16 -13 -21
-10 -10 12 36 10 39 -20 46 -28 6 -27 6 6 4 19 -1 44 4 54 11 27 20 34 17 9
-4z m926 7 c0 -5 -4 -8 -9 -4 -5 3 -12 1 -16 -5 -5 -9 202 -18 269 -11 11 1
17 -2 13 -5 -8 -8 -518 -6 -526 1 -2 3 43 5 102 5 108 0 141 5 131 21 -3 5 4
9 15 9 12 0 21 -5 21 -11z m4915 -12 c-24 -15 -66 -56 -83 -82 -7 -11 -6 -6 3
12 11 24 12 33 2 36 -7 3 -5 6 5 6 10 1 32 10 50 21 18 11 35 20 38 19 3 0 -4
-6 -15 -12z m-9802 -4 c3 -5 -8 -9 -24 -10 -16 -1 -29 2 -29 7 0 12 47 13 53
3z m79 -5 c-8 -8 -17 -8 -34 0 -22 10 -21 11 12 11 26 1 31 -2 22 -11z m2145
6 c-3 -3 -12 -4 -19 -1 -8 3 -5 6 6 6 11 1 17 -2 13 -5z m1520 0 c-3 -3 -12
-4 -19 -1 -8 3 -5 6 6 6 11 1 17 -2 13 -5z m71 -1 c-10 -2 -26 -2 -35 0 -10 3
-2 5 17 5 19 0 27 -2 18 -5z m2922 -3 c0 -6 -53 -9 -142 -8 l-143 2 140 6 c77
3 141 7 143 8 1 1 2 -2 2 -8z m-10930 -10 c0 -5 -2 -10 -4 -10 -3 0 -8 5 -11
10 -3 6 -1 10 4 10 6 0 11 -4 11 -10z m47 4 c-3 -3 -12 -4 -19 -1 -8 3 -5 6 6
6 11 1 17 -2 13 -5z m231 -1 c-16 -2 -40 -2 -55 0 -16 2 -3 4 27 4 30 0 43 -2
28 -4z m1706 -6 c83 1 105 -2 90 -10 -30 -17 -151 -12 -284 12 -55 10 -54 10
15 4 39 -3 119 -6 179 -6z m1393 7 c-3 -3 -12 -4 -19 -1 -8 3 -5 6 6 6 11 1
17 -2 13 -5z m181 -1 c-32 -2 -84 -2 -115 0 -32 2 -6 3 57 3 63 0 89 -1 58 -3z
m260 0 c-32 -2 -84 -2 -115 0 -32 2 -6 3 57 3 63 0 89 -1 58 -3z m149 1 c-3
-3 -12 -4 -19 -1 -8 3 -5 6 6 6 11 1 17 -2 13 -5z m106 -1 c-7 -2 -19 -2 -25
0 -7 3 -2 5 12 5 14 0 19 -2 13 -5z m50 0 c-7 -2 -19 -2 -25 0 -7 3 -2 5 12 5
14 0 19 -2 13 -5z m260 0 c-18 -2 -48 -2 -65 0 -18 2 -4 4 32 4 36 0 50 -2 33
-4z m70 0 c-7 -2 -19 -2 -25 0 -7 3 -2 5 12 5 14 0 19 -2 13 -5z m100 0 c-13
-2 -33 -2 -45 0 -13 2 -3 4 22 4 25 0 35 -2 23 -4z m130 0 c-7 -2 -21 -2 -30
0 -10 3 -4 5 12 5 17 0 24 -2 18 -5z m1930 0 c-13 -2 -33 -2 -45 0 -13 2 -3 4
22 4 25 0 35 -2 23 -4z m3235 2 c-10 -11 -360 -16 -354 -6 4 6 76 10 183 10
97 1 174 -2 171 -4z m105 -2 c-7 -2 -19 -2 -25 0 -7 3 -2 5 12 5 14 0 19 -2
13 -5z m322 -3 c-3 -6 -40 -9 -83 -8 l-77 2 80 6 c44 3 81 7 83 8 2 1 0 -2 -3
-8z m150 0 c3 -5 -3 -10 -14 -10 -12 0 -21 5 -21 10 0 6 6 10 14 10 8 0 18 -4
21 -10z m573 3 c-10 -2 -26 -2 -35 0 -10 3 -2 5 17 5 19 0 27 -2 18 -5z m885
0 c-13 -2 -35 -2 -50 0 -16 2 -5 4 22 4 28 0 40 -2 28 -4z m260 0 c-7 -2 -21
-2 -30 0 -10 3 -4 5 12 5 17 0 24 -2 18 -5z m120 0 c-13 -2 -33 -2 -45 0 -13
2 -3 4 22 4 25 0 35 -2 23 -4z m115 0 c-16 -2 -40 -2 -55 0 -16 2 -3 4 27 4
30 0 43 -2 28 -4z m-11523 -13 c78 -1 79 -2 45 -14 -22 -9 -43 -10 -58 -5 -13
5 -51 9 -85 10 -34 0 -71 4 -82 9 -13 6 0 8 40 6 33 -2 96 -5 140 -6z m1308 3
c-7 -2 -21 -2 -30 0 -10 3 -4 5 12 5 17 0 24 -2 18 -5z m70 0 c-7 -2 -19 -2
-25 0 -7 3 -2 5 12 5 14 0 19 -2 13 -5z m114 1 c-3 -3 -12 -4 -19 -1 -8 3 -5
6 6 6 11 1 17 -2 13 -5z m40 0 c-3 -3 -12 -4 -19 -1 -8 3 -5 6 6 6 11 1 17 -2
13 -5z m2621 -1 c-21 -2 -55 -2 -75 0 -21 2 -4 4 37 4 41 0 58 -2 38 -4z m110
0 c-10 -2 -26 -2 -35 0 -10 3 -2 5 17 5 19 0 27 -2 18 -5z m1064 -16 c7 6 85
13 172 17 160 6 209 0 80 -9 -38 -3 -105 -10 -149 -15 -113 -14 -123 -13 -135
13 -11 21 -10 21 4 3 11 -14 19 -16 28 -9z m1591 6 c37 -22 -126 -18 -326 7
-51 6 -15 7 123 3 107 -3 199 -8 203 -10z m990 10 c-7 -2 -19 -2 -25 0 -7 3
-2 5 12 5 14 0 19 -2 13 -5z m3020 0 c-7 -2 -19 -2 -25 0 -7 3 -2 5 12 5 14 0
19 -2 13 -5z m1451 -25 c-3 -4 -13 -8 -23 -8 -24 0 -83 25 -76 31 8 9 104 -14
99 -23z m214 25 c-10 -2 -26 -2 -35 0 -10 3 -2 5 17 5 19 0 27 -2 18 -5z
m-3976 -14 c-16 -14 -58 -17 -80 -5 -20 11 -17 12 32 12 30 -1 52 -4 48 -7z
m4425 5 c-3 -3 -12 -4 -19 -1 -8 3 -5 6 6 6 11 1 17 -2 13 -5z m-3772 -34 c10
-11 16 -20 13 -20 -3 0 -13 9 -23 20 -10 11 -16 20 -13 20 3 0 13 -9 23 -20z
m188 -12 c16 -12 15 -13 -9 -15 -17 -1 -22 2 -14 7 10 6 8 10 -7 19 -11 5 -24
7 -28 3 -5 -4 -5 -1 -1 6 7 12 22 8 59 -20z m827 29 c0 -2 -15 -16 -32 -33
l-33 -29 29 33 c28 30 36 37 36 29z m-3676 -13 c20 -8 21 -21 1 -21 -8 0 -12
4 -9 8 2 4 -2 10 -8 12 -7 3 -10 6 -6 6 3 1 13 -2 22 -5z m617 -61 c-12 -20
-14 -14 -5 12 4 9 9 14 11 11 3 -2 0 -13 -6 -23z m2285 15 c4 -7 3 -8 -5 -4
-6 4 -20 2 -29 -6 -15 -12 -16 -11 -3 5 16 20 27 22 37 5z m344 2 c13 -8 13
-10 -2 -10 -9 0 -20 5 -23 10 -8 13 5 13 25 0z m197 4 c-3 -3 -12 -4 -19 -1
-8 3 -5 6 6 6 11 1 17 -2 13 -5z m66 -1 c-7 -2 -21 -2 -30 0 -10 3 -4 5 12 5
17 0 24 -2 18 -5z m-11330 -40 c18 -10 57 -20 87 -23 l55 -6 -52 -4 c-43 -4
-58 -1 -95 22 -48 31 -45 38 5 11z m14647 3 c0 -2 -17 -16 -37 -32 -20 -15
-33 -23 -29 -16 4 7 -8 12 -36 15 -43 4 -43 4 8 5 27 1 59 9 70 17 20 15 24
17 24 11z m-4009 -44 c-7 -2 -18 1 -23 6 -8 8 -4 9 13 5 13 -4 18 -8 10 -11z
m-2260 -68 c-16 -33 -30 -56 -31 -53 -1 13 51 121 56 116 3 -3 -8 -31 -25 -63z
m2519 62 c0 -2 -7 -7 -16 -10 -8 -3 -12 -2 -9 4 6 10 25 14 25 6z m3215 -44
c-3 -3 -11 0 -18 7 -9 10 -8 11 6 5 10 -3 15 -9 12 -12z m-8125 -77 c0 -5 -5
-3 -10 5 -5 8 -10 20 -10 25 0 6 5 3 10 -5 5 -8 10 -19 10 -25z m2203 8 c-29
-2 -78 -2 -110 0 -32 2 -8 3 52 3 61 0 87 -1 58 -3z m135 -58 c-6 -14 -13 -23
-15 -21 -5 5 15 46 22 46 3 0 -1 -11 -7 -25z m-268 -13 c0 -15 -2 -15 -10 -2
-13 20 -13 33 0 25 6 -3 10 -14 10 -23z m-1960 -21 c0 -10 -6 -21 -14 -24 -11
-4 -11 -1 -2 19 13 29 16 30 16 5z m384 -36 c-7 -16 -24 -21 -24 -6 0 8 7 13
27 20 1 1 0 -6 -3 -14z m26 -11 c-7 -16 -7 -23 0 -19 6 3 10 2 10 -3 0 -16
-13 -22 -26 -11 -11 9 -10 15 3 35 20 31 25 31 13 -2z m1687 -39 c92 0 101 -2
97 -18 -4 -21 38 -121 54 -131 6 -4 37 2 69 13 32 11 61 16 66 12 4 -4 -13
-43 -38 -86 -24 -43 -43 -81 -41 -84 2 -3 29 -67 61 -141 81 -191 74 -182 95
-124 15 45 144 354 205 494 l24 55 280 3 280 2 -49 -65 -50 -66 0 -513 0 -514
45 -61 c25 -34 42 -61 37 -61 -4 0 -24 11 -44 25 -37 25 -39 25 -250 25 -208
0 -214 -1 -256 -25 l-43 -24 20 27 c58 77 67 85 89 73 11 -6 23 -8 26 -3 7 11
8 92 6 407 l-1 280 -23 -105 c-13 -60 -45 -158 -75 -230 -29 -69 -82 -199
-118 -288 l-66 -164 -21 26 c-18 22 -30 26 -85 28 l-65 3 -62 145 c-34 80
-106 249 -160 377 -54 128 -100 231 -101 229 -2 -2 6 -47 17 -101 17 -82 20
-136 20 -339 l0 -243 40 -56 c22 -30 40 -58 40 -62 0 -3 -19 5 -42 19 l-43 25
-445 0 -444 0 -43 -25 c-24 -14 -43 -22 -43 -19 0 18 75 95 87 90 7 -3 20 -8
28 -11 10 -4 15 0 15 12 0 17 -37 142 -62 207 l-10 27 -180 0 -179 0 17 -29
c16 -27 16 -31 -10 -105 -14 -42 -26 -80 -26 -85 0 -4 16 -29 35 -54 19 -25
35 -49 35 -52 0 -3 -20 6 -45 20 l-44 27 -203 -6 c-112 -3 -210 -5 -218 -5 -8
1 -120 3 -248 5 l-233 5 -46 -26 c-51 -31 -49 -19 11 50 33 38 35 39 54 22 36
-32 44 17 40 234 l-3 194 -164 3 -165 3 22 -24 c21 -22 22 -32 22 -196 0 -185
1 -189 58 -258 39 -49 37 -51 -18 -23 -36 18 -59 20 -253 20 -154 0 -225 -4
-253 -13 -29 -10 -47 -11 -69 -4 -16 6 -122 13 -235 16 l-204 6 -43 100 c-23
55 -63 148 -88 208 l-47 107 -71 0 -71 0 27 -28 c27 -28 27 -29 27 -178 l0
-150 40 -54 c22 -29 40 -55 40 -58 0 -2 -20 8 -45 22 l-45 27 -227 -4 c-126
-3 -232 -5 -238 -5 -5 0 -123 2 -261 5 l-252 5 -52 -27 -52 -27 43 51 c24 28
50 49 57 46 6 -3 19 -8 27 -11 22 -9 19 5 -21 132 l-37 114 -179 0 -179 0 17
-28 c15 -27 15 -32 -10 -101 -14 -40 -26 -78 -26 -84 0 -7 18 -36 40 -64 22
-29 36 -53 32 -53 -4 0 -25 12 -47 25 -39 24 -46 25 -220 25 -173 0 -182 -1
-223 -25 -49 -28 -45 -17 18 52 30 32 51 47 64 45 15 -3 16 -6 5 -13 -9 -6
-10 -9 -2 -9 6 0 15 5 19 11 8 14 88 234 174 482 38 108 72 202 75 207 3 6 1
10 -4 10 -6 0 -11 -4 -11 -8 0 -5 -7 -9 -15 -9 -8 0 -13 3 -11 6 9 18 21 53
37 106 9 33 32 104 51 157 28 84 36 97 56 98 15 0 22 6 22 20 0 20 -17 35 -85
75 l-40 24 252 1 251 0 16 -42 c9 -24 61 -173 117 -333 182 -524 240 -689 258
-740 14 -39 26 -54 54 -68 35 -18 38 -18 66 -1 24 14 32 15 45 5 35 -29 38 25
33 554 -2 281 -8 518 -12 529 -4 10 -36 36 -69 57 l-61 39 155 0 c452 1 637
-2 684 -12 117 -24 205 -91 257 -195 33 -66 34 -71 34 -188 0 -120 0 -122 -38
-198 -22 -44 -51 -87 -68 -99 -33 -25 -70 -32 -62 -11 6 15 -6 17 -27 3 -13
-9 -13 -11 0 -20 8 -5 20 -10 25 -10 6 0 50 -95 99 -210 49 -115 98 -218 110
-228 12 -11 36 -27 54 -36 32 -16 33 -16 75 12 37 26 44 28 56 15 11 -12 15
-13 22 -1 5 7 9 250 9 539 0 604 8 554 -98 609 l-57 29 308 1 308 0 -43 -61
-43 -60 0 -162 0 -162 120 -3 c93 -2 123 -6 137 -19 17 -15 18 -14 18 30 0 27
-5 47 -11 47 -5 0 -7 -4 -4 -10 3 -5 2 -10 -3 -10 -6 0 -13 7 -16 16 -3 8 -2
12 4 9 6 -3 10 1 10 9 0 8 -5 18 -11 22 -8 4 -7 9 2 15 10 7 11 11 2 17 -7 4
-11 41 -11 100 0 79 2 91 14 81 11 -9 15 -8 21 6 10 29 -18 67 -76 100 l-53
30 134 6 c152 7 478 3 478 -5 0 -3 0 -10 0 -15 0 -5 -22 -31 -50 -57 l-50 -47
3 -520 2 -520 26 -19 c26 -20 26 -20 67 1 51 26 74 27 65 4 -4 -13 -3 -15 5
-8 10 9 47 106 107 275 132 375 135 384 123 392 -12 7 -9 9 8 7 7 -1 24 22 24
33 0 3 -9 4 -20 1 -20 -5 -28 15 -13 31 5 4 13 29 20 54 6 26 30 98 54 160 33
87 46 112 60 112 24 0 25 32 2 52 -31 26 -94 58 -103 53 -5 -3 -11 -1 -15 5
-4 7 77 9 255 8 l262 -3 19 -50 c21 -58 185 -525 299 -855 43 -124 81 -233 85
-243 4 -10 23 -24 42 -32 31 -13 38 -13 63 2 23 13 32 14 44 4 35 -29 37 13
34 553 -3 594 5 539 -92 596 l-51 30 181 0 181 0 -3 28 c-4 26 -3 26 4 2 8
-25 10 -25 109 -25z m5746 18 c-7 -2 -21 -2 -30 0 -10 3 -4 5 12 5 17 0 24 -2
18 -5z m-12353 -28 c0 -2 -20 -16 -44 -30 -40 -24 -43 -28 -36 -53 5 -15 13
-54 19 -87 5 -33 28 -148 51 -255 34 -163 40 -208 36 -273 -2 -44 -2 -76 1
-73 3 3 18 54 33 113 15 59 31 117 35 128 4 11 3 16 -2 10 -4 -5 -16 -11 -25
-11 -14 -1 -15 3 -6 25 5 14 12 37 14 51 3 14 22 90 44 170 22 80 47 177 57
215 l18 70 142 3 141 3 15 -48 c9 -27 46 -158 83 -293 37 -135 73 -252 81
-260 12 -13 13 -13 8 2 -4 9 15 122 41 252 41 205 50 236 66 236 36 0 17 31
-44 70 l-63 40 263 0 264 0 -45 -62 c-38 -54 -48 -79 -70 -178 -33 -145 -131
-591 -151 -690 -16 -76 -61 -284 -72 -330 l-6 -25 -20 28 -20 27 -167 0 -168
0 -10 38 c-6 20 -44 154 -84 297 l-74 260 -5 -95 c-4 -77 -17 -137 -70 -322
-36 -125 -68 -228 -71 -228 -3 0 -12 11 -19 25 l-13 25 -168 0 -168 0 -9 38
c-5 20 -17 73 -26 117 -10 44 -30 136 -46 205 -16 69 -38 168 -50 220 -77 350
-123 538 -139 560 -10 14 -42 40 -71 58 l-54 32 302 0 c166 0 302 -2 302 -5z
m8409 -78 c19 -45 53 -125 76 -177 23 -52 63 -148 91 -212 27 -65 52 -118 56
-118 4 0 12 16 19 34 7 19 15 33 18 31 3 -2 6 7 7 18 1 12 22 72 49 132 26 61
72 170 102 243 l55 132 280 0 c223 0 279 -3 271 -12 -5 -7 -27 -35 -48 -63
l-40 -49 0 -517 0 -516 43 -62 c24 -33 40 -61 37 -61 -3 0 -21 11 -39 25 -33
25 -34 25 -245 25 -208 0 -213 0 -263 -26 l-51 -26 30 39 c17 21 41 47 53 58
21 19 22 19 36 1 30 -41 36 25 32 351 -1 172 -6 313 -9 313 -3 0 -13 -40 -22
-89 -9 -48 -38 -137 -63 -197 -25 -60 -72 -174 -104 -254 -32 -80 -66 -163
-75 -185 l-17 -39 -14 27 c-14 25 -19 27 -83 27 l-69 0 -93 218 c-111 261
-207 488 -220 521 -19 48 -17 13 7 -94 21 -98 24 -135 24 -345 l0 -235 35 -52
c19 -29 35 -55 35 -58 0 -3 -18 6 -40 20 -38 24 -46 25 -202 25 -156 0 -165
-1 -207 -25 -24 -14 -45 -24 -47 -22 -5 4 66 91 82 100 7 4 22 3 33 -2 15 -8
20 -7 25 5 3 9 6 251 6 539 l0 523 -26 32 c-15 17 -47 42 -73 55 l-46 24 280
0 280 1 34 -83z m2051 -139 c0 -156 -3 -218 -11 -208 -5 8 -21 36 -34 62 -14
26 -34 52 -44 58 -24 12 -391 14 -391 2 0 -5 9 -17 20 -27 15 -13 20 -31 20
-67 l0 -48 78 0 c42 0 82 4 88 8 6 4 21 26 32 48 22 44 41 57 62 44 10 -6 12
-69 11 -294 l-2 -286 39 0 c31 0 48 9 93 46 l54 47 5 -219 c3 -120 4 -221 3
-223 -2 -2 -12 8 -24 22 l-20 27 -427 0 -427 0 -50 -26 -49 -27 43 52 c52 62
58 66 76 51 8 -6 19 -9 25 -5 7 4 10 181 10 544 0 612 8 557 -90 611 l-55 30
483 0 482 0 0 -222z m1053 179 c85 -42 132 -89 175 -177 25 -51 27 -64 27
-180 -1 -113 -3 -130 -27 -181 -25 -54 -91 -139 -108 -139 -5 0 -15 7 -24 15
-14 15 -46 11 -46 -6 0 -5 10 -11 23 -14 17 -5 34 -34 76 -133 89 -209 136
-304 185 -369 l46 -63 -49 30 -48 30 -187 0 -188 0 -14 38 c-8 20 -48 114 -88
207 l-73 170 -66 3 c-71 3 -80 -3 -47 -33 18 -17 20 -31 20 -167 l0 -149 40
-54 c22 -30 40 -57 40 -60 0 -3 -18 6 -40 20 -39 25 -43 25 -250 25 -207 0
-212 0 -262 -26 l-51 -26 21 29 c60 81 69 89 92 75 12 -7 25 -10 28 -7 4 4 7
250 7 547 l0 540 -31 26 c-17 15 -49 37 -70 49 l-39 23 426 -3 425 -2 77 -38z
m-6611 26 c-6 -2 -9 -10 -6 -15 4 -7 2 -8 -4 -4 -18 11 -14 26 6 25 10 0 12
-3 4 -6z m-5892 -54 c0 -5 -8 -9 -17 -8 -10 1 -35 1 -57 0 -37 -1 -38 -2 -24
-23 19 -28 69 -46 138 -49 l55 -2 -50 -6 c-27 -3 -57 -3 -65 1 -8 5 -60 26
-115 48 l-100 39 100 4 c55 1 108 4 118 5 9 1 17 -3 17 -9z m110 -3 c0 -3 -4
-8 -10 -11 -5 -3 -10 -1 -10 4 0 6 5 11 10 11 6 0 10 -2 10 -4z m94 -43 c59
-37 60 -38 31 -41 -53 -6 -136 8 -142 25 -5 13 29 52 46 53 2 0 31 -17 65 -37z
m126 1 c0 -2 -9 0 -20 6 -11 6 -20 13 -20 16 0 2 9 0 20 -6 11 -6 20 -13 20
-16z m12987 20 c-3 -3 -12 -4 -19 -1 -8 3 -5 6 6 6 11 1 17 -2 13 -5z m121 -1
c-10 -2 -28 -2 -40 0 -13 2 -5 4 17 4 22 1 32 -1 23 -4z m-228 -53 c8 -5 11
-10 5 -10 -5 0 -17 5 -25 10 -8 5 -10 10 -5 10 6 0 17 -5 25 -10z m280 3 c-8
-3 -26 -10 -40 -16 -14 -6 -34 -9 -45 -8 -11 2 -49 7 -85 11 -62 8 -61 8 32 7
53 -1 100 2 104 6 4 4 17 7 28 6 15 0 17 -2 6 -6z m-14057 -110 c-7 -2 -21 -2
-30 0 -10 3 -4 5 12 5 17 0 24 -2 18 -5z m142 -3 c46 -7 43 -7 -37 -9 -53 0
-88 3 -88 9 0 12 53 12 125 0z m6211 -37 c-8 -15 -15 -25 -16 -21 0 12 23 58
27 54 3 -2 -2 -17 -11 -33z m8043 18 c6 -10 8 -21 4 -24 -3 -3 7 -9 22 -13 26
-7 26 -7 -14 -25 -23 -10 -41 -22 -41 -26 0 -4 -10 -19 -21 -33 -20 -24 -20
-24 0 12 l22 37 -38 6 c-57 10 -62 13 -20 14 20 1 37 5 37 9 0 5 12 13 28 20
15 6 18 9 7 7 -16 -4 -21 0 -21 15 0 25 22 26 35 1z m-64 -1 c3 -6 -1 -7 -9
-4 -18 7 -21 14 -7 14 6 0 13 -4 16 -10z m-14267 -14 c6 -4 17 -4 22 -1 6 3
10 2 10 -3 0 -5 17 -14 39 -20 47 -15 64 -15 56 -2 -3 6 1 10 9 10 9 0 16 -4
16 -9 0 -4 35 -9 79 -10 43 -1 91 -6 107 -10 17 -5 -21 -6 -88 -3 -91 4 -118
2 -118 -8 0 -9 -3 -10 -13 -1 -8 6 -45 20 -83 32 -38 11 -73 24 -77 28 -10 10
24 7 41 -3z m14427 -6 c11 -5 15 -9 8 -9 -6 -1 -17 -3 -25 -6 -7 -3 -22 1 -33
9 -19 15 -19 15 5 15 14 0 34 -4 45 -9z m-235 -36 c0 -2 -9 -4 -21 -4 -11 0
-18 4 -14 10 5 8 35 3 35 -6z m-13579 -31 c13 -16 12 -17 -3 -4 -10 7 -18 15
-18 17 0 8 8 3 21 -13z m105 -281 c18 -20 33 -39 34 -42 0 -3 -13 -7 -29 -8
-33 -2 -88 17 -165 59 l-51 28 90 0 89 0 32 -37z m169 2 c25 -16 56 -35 68
-41 19 -11 8 -13 -73 -13 -92 0 -95 1 -127 32 -51 49 -45 62 26 55 40 -3 74
-14 106 -33z m12882 -30 c-3 -3 -12 -4 -19 -1 -8 3 -5 6 6 6 11 1 17 -2 13 -5z
m-127 -9 c0 -2 -18 -14 -40 -25 -22 -11 -40 -18 -40 -15 0 2 17 13 38 24 42
23 42 23 42 16z m36 -14 c-3 -4 15 -8 39 -7 57 1 64 -18 7 -22 -28 -2 -42 -7
-39 -15 2 -7 15 -11 28 -9 33 4 71 31 63 44 -5 8 -1 9 10 5 10 -4 22 -7 28 -7
6 0 -11 -11 -38 -26 -27 -14 -60 -37 -72 -52 -20 -22 -22 -23 -13 -5 13 26 2
30 -79 36 l-45 2 30 15 c17 8 41 22 54 32 26 20 35 23 27 9z m-216 -31 c-6
-11 -13 -20 -16 -20 -2 0 0 9 6 20 6 11 13 20 16 20 2 0 0 -9 -6 -20z m-13285
-170 c-22 -4 -44 -6 -48 -3 -4 3 -13 1 -20 -5 -8 -5 -21 -4 -35 3 -20 11 -12
13 60 13 67 0 75 -2 43 -8z m275 -4 c0 -8 9 -18 20 -21 28 -9 25 -35 -4 -35
-13 0 -26 -4 -28 -9 -5 -14 -119 -16 -148 -3 -22 10 -19 11 20 6 29 -4 40 -2
32 4 -10 7 -10 11 3 22 14 11 16 11 13 -1 -2 -8 3 -13 10 -11 6 1 12 -2 12 -8
0 -5 11 -10 25 -10 18 0 23 4 19 15 -4 8 -17 15 -30 15 -21 0 -23 2 -12 14 7
8 15 14 18 14 3 0 14 0 25 1 17 1 18 3 5 11 -13 8 -12 10 3 10 9 0 17 -6 17
-14z m71 -3 c11 -13 11 -15 1 -9 -8 5 -26 12 -40 16 l-27 8 26 1 c15 1 33 -7
40 -16z m-253 -16 c1 -16 -4 -23 -18 -24 -11 -1 -20 2 -20 8 0 5 7 9 15 9 8 0
14 3 14 8 -2 10 0 22 4 22 1 0 3 -10 5 -23z m-65 -14 c-7 -2 -21 -2 -30 0 -10
3 -4 5 12 5 17 0 24 -2 18 -5z m362 -42 c3 -6 -10 -7 -32 -4 -50 8 -55 13 -10
13 20 0 38 -4 42 -9z m13540 -11 c3 -6 -1 -7 -9 -4 -18 7 -21 14 -7 14 6 0 13
-4 16 -10z m-575 -100 c-6 -11 -13 -20 -16 -20 -2 0 0 9 6 20 6 11 13 20 16
20 2 0 0 -9 -6 -20z m-12482 -86 c18 -8 32 -17 32 -18 0 -2 -13 -2 -30 -1 -16
1 -30 -2 -30 -6 0 -13 52 -20 65 -9 10 9 16 6 25 -11 11 -19 10 -21 -4 -16 -8
3 -18 2 -21 -3 -4 -6 6 -10 21 -10 15 0 24 -3 21 -7 -9 -8 -195 -15 -225 -8
-13 3 -20 10 -17 15 3 5 -5 14 -17 21 -21 11 -22 11 -9 -4 17 -22 13 -21 -43
3 -25 10 -46 24 -46 29 0 6 -17 14 -37 18 l-38 8 50 6 c109 13 271 10 303 -7z
m12507 -64 c3 -5 3 -10 -2 -11 -67 -6 -99 -12 -103 -18 -3 -5 -16 -12 -30 -16
-20 -6 -17 -2 12 18 21 15 45 23 56 20 11 -2 23 0 26 6 9 14 33 14 41 1z
m-171 -35 c4 -10 -1 -15 -15 -15 -17 0 -18 2 -7 15 16 18 15 18 22 0z m-58
-32 c-7 -7 -87 -5 -95 3 -2 2 20 4 49 4 29 0 50 -3 46 -7z m199 -5 c-11 -6
-28 -20 -38 -32 -17 -21 -17 -21 -6 6 11 24 25 34 54 37 6 0 1 -5 -10 -11z
m-102 -5 c-7 -2 -21 -2 -30 0 -10 3 -4 5 12 5 17 0 24 -2 18 -5z m-12810 -90
c-13 -2 -33 -2 -45 0 -13 2 -3 4 22 4 25 0 35 -2 23 -4z m5869 -113 c99 -37
163 -126 194 -270 18 -85 18 -134 -2 -227 -18 -89 -39 -134 -85 -183 -26 -27
-34 -31 -37 -19 -3 15 -9 14 -49 -9 -37 -20 -64 -27 -129 -30 -92 -5 -130 5
-198 49 -85 57 -134 208 -123 381 3 54 2 86 -4 83 -31 -20 19 98 67 154 70 83
244 117 366 71z m869 -4 c52 -25 118 -94 145 -152 78 -167 48 -432 -59 -532
-18 -17 -27 -20 -32 -11 -6 8 -4 10 5 4 9 -5 11 -4 6 3 -5 8 -21 5 -55 -13
-157 -79 -337 -32 -405 105 -46 92 -63 226 -43 338 4 27 4 42 -3 42 -5 0 -10
-7 -10 -17 0 -9 -3 -14 -6 -10 -3 3 1 30 10 61 23 78 100 160 176 187 69 24
215 22 271 -5z m713 10 c73 -22 127 -73 172 -163 l39 -78 0 -140 c-1 -121 -4
-148 -23 -196 -28 -71 -89 -144 -107 -129 -9 8 -24 5 -55 -11 -58 -31 -179
-38 -247 -15 -97 32 -148 98 -183 234 -12 46 -15 235 -5 268 4 12 0 10 -9 -6
l-16 -25 6 30 c25 119 107 208 219 235 51 13 159 11 209 -4z m726 3 c79 -17
141 -72 187 -166 l38 -78 0 -140 c0 -124 -3 -147 -24 -199 -24 -61 -86 -140
-102 -130 -5 3 -7 9 -5 13 3 4 -16 -3 -42 -16 -155 -76 -333 -30 -401 105 -41
81 -54 151 -50 269 3 81 1 99 -9 91 -9 -8 -11 -7 -6 6 3 9 11 16 18 16 6 0 5
4 -3 9 -22 14 30 111 84 159 75 66 190 88 315 61z m-2930 -199 l0 -200 45 0
45 0 0 -110 c0 -108 -5 -125 -30 -95 -7 9 -29 15 -53 15 -38 0 -39 -1 -24 -18
13 -14 17 -38 17 -92 0 -70 -1 -72 -18 -57 -15 13 -39 17 -115 17 l-97 0 0 75
0 75 -160 0 -160 0 0 85 c0 67 -3 87 -15 91 -8 4 -12 10 -9 15 3 5 10 7 15 3
5 -3 8 -1 7 4 -3 10 44 78 86 127 15 17 71 83 124 148 l97 117 122 0 123 0 0
-200z m-5083 172 c6 -4 13 -14 15 -21 5 -25 42 -62 55 -57 10 4 10 1 0 -14
-11 -18 -23 -20 -139 -20 -70 0 -129 -3 -131 -8 -3 -4 11 -34 30 -67 19 -32
29 -54 21 -48 -7 6 -26 37 -43 68 -21 39 -37 57 -55 61 -14 3 -45 12 -70 19
l-45 13 45 -3 c25 -3 36 -2 25 1 -32 10 -47 26 -35 38 20 20 9 24 -55 20 -37
-2 -65 0 -65 6 0 6 71 11 173 13 94 1 192 3 217 5 25 1 50 -2 57 -6z m-487
-27 c-7 -8 -20 -15 -29 -14 -11 0 -9 3 7 9 12 5 22 15 22 21 0 7 3 9 6 6 4 -4
1 -13 -6 -22z m13053 -40 c-3 -9 -8 -14 -10 -11 -3 3 -2 9 2 15 9 16 15 13 8
-4z m-4234 -49 c21 -41 26 -44 60 -42 20 1 38 0 41 -3 3 -3 27 -16 53 -29 30
-14 45 -26 41 -34 -4 -7 -3 -8 4 -4 17 10 139 -61 166 -98 13 -17 35 -52 50
-77 l26 -46 -22 -16 c-18 -13 -20 -18 -9 -25 9 -7 10 -12 2 -16 -6 -4 -9 -12
-6 -17 4 -5 1 -9 -5 -9 -7 0 -10 -7 -6 -15 8 -22 -12 -18 -24 4 -16 30 -13 54
6 47 12 -5 15 -2 10 10 -3 8 -6 24 -6 35 0 14 -7 19 -30 19 -22 0 -28 -4 -24
-15 4 -8 10 -12 15 -9 5 3 9 -15 9 -40 0 -25 5 -48 10 -51 6 -4 8 -10 5 -15
-3 -4 6 -15 20 -24 15 -10 22 -22 19 -31 -4 -8 -1 -15 4 -15 6 0 14 9 17 20 3
11 10 20 14 20 4 0 8 6 8 14 0 8 -6 12 -12 9 -7 -2 -15 3 -18 12 -5 12 -1 14
18 9 20 -5 24 -3 19 10 -3 8 -11 14 -17 13 -7 -1 -12 11 -12 28 0 32 25 43 32
15 4 -13 3 -13 -6 0 -9 12 -11 11 -11 -8 0 -13 4 -21 9 -18 12 8 19 -13 15
-47 -2 -22 3 -30 22 -37 13 -5 32 -25 41 -44 9 -19 20 -33 25 -30 4 3 8 -2 8
-11 0 -9 9 -33 20 -55 27 -53 26 -63 -9 -58 -17 2 -28 1 -25 -4 3 -4 12 -8 21
-8 18 0 83 -63 83 -80 0 -18 -20 -11 -21 8 -1 12 -4 9 -10 -8 -8 -23 -8 -22
-4 7 3 25 1 31 -13 29 -9 -2 -17 -10 -17 -18 0 -18 -25 -51 -33 -43 -3 2 1 11
8 20 7 9 8 15 2 15 -6 0 -19 3 -29 7 -16 6 -16 5 -4 -10 11 -14 11 -17 0 -17
-9 0 -10 -3 -2 -11 15 -15 46 -18 62 -5 12 9 12 8 0 -11 -15 -26 -39 -38 -39
-21 0 6 -3 8 -6 5 -4 -3 -15 -2 -25 3 -10 6 -20 6 -23 1 -3 -5 1 -11 9 -15 8
-3 15 -11 14 -18 0 -10 -2 -10 -6 0 -2 6 -8 10 -13 7 -5 -3 -11 4 -15 15 -6
20 -25 28 -25 11 0 -5 -7 -16 -15 -25 -15 -15 -11 -46 7 -46 5 0 16 -6 24 -14
10 -11 11 -15 1 -19 -8 -3 -3 -12 13 -26 l25 -21 -25 10 c-17 8 -41 43 -79
116 -30 58 -59 103 -65 101 -6 -3 -12 6 -12 18 -2 21 -148 321 -194 396 -23
40 -61 119 -80 169 -7 19 -31 70 -52 112 -21 43 -38 80 -38 83 0 13 9 2 29
-39z m4911 34 c-8 -5 -22 -9 -30 -9 -10 0 -8 3 5 9 27 12 43 12 25 0z m-10850
-10 c0 -4 -18 -12 -40 -19 -31 -9 -49 -9 -82 1 l-43 12 40 7 c52 8 125 8 125
-1z m217 4 c-3 -3 -12 -4 -19 -1 -8 3 -5 6 6 6 11 1 17 -2 13 -5z m671 -7 c28
0 52 -2 52 -3 0 -2 -19 -8 -42 -15 -33 -8 -55 -8 -96 2 -55 13 -55 28 0 21 18
-3 57 -5 86 -5z m7958 -12 c25 4 24 3 -6 -9 -45 -19 -95 -19 -145 -2 -37 13
-38 15 -15 20 51 12 105 11 121 -2 10 -8 29 -11 45 -7z m-7448 8 c-10 -2 -28
-2 -40 0 -13 2 -5 4 17 4 22 1 32 -1 23 -4z m722 -5 c-1 -15 -29 -67 -30 -55
0 5 5 18 11 29 9 16 8 23 -2 29 -11 7 -10 9 4 9 9 0 17 -6 17 -12z m5886 3
c-4 -5 13 -7 36 -5 l43 5 -44 -17 c-34 -12 -50 -13 -68 -5 -13 6 -34 11 -46
12 -21 1 -20 1 3 9 35 11 82 12 76 1z m2767 -10 c-10 -10 -33 -44 -52 -75 -33
-55 -53 -78 -30 -33 29 54 80 127 89 127 5 0 2 -8 -7 -19z m-8708 -111 c-14
-27 -28 -50 -30 -50 -3 0 6 23 20 50 14 28 28 50 30 50 3 0 -6 -22 -20 -50z
m-134 -4 c-6 -8 -25 -19 -41 -26 -17 -7 -30 -16 -30 -20 0 -3 -7 -7 -16 -7
-20 0 16 31 61 52 38 18 40 18 26 1z m-141 -66 c0 -5 -8 -10 -17 -10 -15 0
-16 2 -3 10 19 12 20 12 20 0z m-43 -17 c-4 -7 -18 -38 -68 -153 -11 -25 -28
-60 -37 -78 -9 -19 -17 -43 -19 -55 -2 -12 -8 -24 -14 -28 -6 -3 -11 -10 -10
-15 1 -18 -11 -54 -18 -54 -5 0 -13 -17 -20 -38 -7 -21 -18 -39 -25 -39 -16 0
10 75 51 147 17 30 45 89 63 130 42 97 89 190 96 190 3 0 3 -3 1 -7z m263 -48
c-15 -39 -23 -25 -8 16 6 18 13 29 15 23 2 -6 -1 -24 -7 -39z m-20 26 c0 -12
-31 -44 -36 -38 -8 8 8 37 17 31 5 -3 9 0 9 5 0 6 2 11 5 11 3 0 5 -4 5 -9z
m-103 -83 c-3 -8 -6 -5 -6 6 -1 11 2 17 5 13 3 -3 4 -12 1 -19z m-1692 2 c3
-6 -4 -10 -17 -10 -18 0 -20 2 -8 10 19 12 18 12 25 0z m1672 -4 c0 -8 -9 -14
-19 -13 -19 1 -23 9 -11 20 11 12 30 7 30 -7z m5784 -3 c13 -16 12 -17 -3 -4
-10 7 -18 15 -18 17 0 8 8 3 21 -13z m-9258 0 c-7 -2 -19 -2 -25 0 -7 3 -2 5
12 5 14 0 19 -2 13 -5z m165 0 c-15 -2 -42 -2 -60 0 -18 2 -6 4 27 4 33 0 48
-2 33 -4z m159 1 c-3 -3 -12 -4 -19 -1 -8 3 -5 6 6 6 11 1 17 -2 13 -5z m313
-3 c0 -5 -15 -7 -32 -4 -46 7 -48 13 -5 13 21 0 37 -4 37 -9z m228 2 c-10 -2
-26 -2 -35 0 -10 3 -2 5 17 5 19 0 27 -2 18 -5z m150 0 c-10 -2 -26 -2 -35 0
-10 3 -2 5 17 5 19 0 27 -2 18 -5z m285 0 c-7 -2 -21 -2 -30 0 -10 3 -4 5 12
5 17 0 24 -2 18 -5z m155 0 c-27 -2 -69 -2 -95 0 -27 2 -5 3 47 3 52 0 74 -1
48 -3z m115 0 c-7 -2 -21 -2 -30 0 -10 3 -4 5 12 5 17 0 24 -2 18 -5z m75 0
c-10 -2 -28 -2 -40 0 -13 2 -5 4 17 4 22 1 32 -1 23 -4z m97 -3 c19 -8 19 -9
-2 -9 -12 -1 -25 4 -28 9 -7 12 2 12 30 0z m135 0 c11 -8 7 -9 -15 -4 -37 8
-45 14 -19 14 10 0 26 -5 34 -10z m157 4 c-3 -3 -12 -4 -19 -1 -8 3 -5 6 6 6
11 1 17 -2 13 -5z m186 -1 c-7 -2 -19 -2 -25 0 -7 3 -2 5 12 5 14 0 19 -2 13
-5z m215 0 c-15 -2 -42 -2 -60 0 -18 2 -6 4 27 4 33 0 48 -2 33 -4z m-493 -13
c-3 -5 -16 -10 -28 -9 -20 1 -20 2 3 9 14 4 26 8 28 9 2 1 0 -3 -3 -9z m1213
3 c-10 -2 -26 -2 -35 0 -10 3 -2 5 17 5 19 0 27 -2 18 -5z m2152 -225 c0 -106
-17 -150 -60 -153 -14 -1 -40 -6 -57 -10 -30 -7 -33 -5 -33 17 0 13 -5 29 -12
36 -9 9 -8 12 4 12 9 0 26 9 39 20 l24 19 -26 1 c-23 0 -27 6 -38 58 -7 31
-15 65 -17 75 -5 15 4 17 85 17 l91 0 0 -92z m-1799 45 c-12 -20 -14 -14 -5
12 4 9 9 14 11 11 3 -2 0 -13 -6 -23z m-153 -64 c1 -17 -2 -28 -7 -25 -10 6
-12 56 -2 56 4 0 8 -14 9 -31z m122 -19 c-17 -32 -22 -18 -8 21 8 22 13 28 16
17 2 -9 -2 -27 -8 -38z m-27 -68 c-8 -20 -40 -88 -69 -150 -30 -62 -54 -117
-54 -122 0 -6 -4 -10 -10 -10 -13 0 -13 6 0 31 6 11 7 19 1 19 -5 0 -12 -7
-15 -16 -5 -13 -9 -14 -21 -4 -11 10 -19 7 -38 -14 -13 -14 -32 -26 -41 -26
-9 0 -16 -4 -16 -10 0 -16 -22 -12 -37 8 -13 15 -13 15 -4 -5 13 -27 14 -36 2
-29 -5 3 -8 -2 -7 -12 0 -10 -5 -16 -13 -14 -8 2 -11 -3 -8 -11 4 -10 -17 -25
-66 -48 -38 -19 -74 -33 -79 -31 -4 1 -7 -3 -6 -10 2 -6 -6 -14 -17 -16 -11
-2 -28 -11 -37 -20 -24 -20 -23 -14 6 41 14 25 39 78 57 119 65 150 101 220
108 210 4 -6 12 -7 20 -3 11 7 10 11 -4 18 -15 9 -16 13 -4 34 11 21 14 22 17
6 3 -14 7 -16 17 -7 17 14 71 9 68 -7 -1 -6 4 -14 13 -17 10 -4 13 -2 8 7 -6
9 -5 9 8 0 8 -7 18 -10 21 -6 4 3 7 -2 7 -13 0 -14 2 -16 9 -6 4 8 14 12 22
10 8 -1 35 8 61 20 36 18 51 33 69 70 13 26 22 50 21 54 -1 4 5 5 12 2 12 -5
12 -11 -1 -42z m-209 -3 c-3 -5 -10 -7 -15 -3 -5 3 -7 10 -3 15 3 5 10 7 15 3
5 -3 7 -10 3 -15z m-104 -23 c0 -3 -4 -8 -10 -11 -5 -3 -10 -1 -10 4 0 6 5 11
10 11 6 0 10 -2 10 -4z m755 -178 l30 -63 65 -6 65 -6 -65 -1 -65 -2 -118
-117 -118 -118 54 125 c91 209 109 250 116 250 4 0 20 -28 36 -62z m930 5 c27
-82 26 -82 165 -84 108 -2 120 -4 104 -16 -13 -10 -34 -13 -69 -8 -27 3 -78 8
-112 11 l-63 6 -111 -116 c-62 -64 -114 -115 -116 -113 -2 3 19 55 137 325 25
55 44 54 65 -5z m-1269 25 c5 -7 3 -8 -5 -3 -8 4 -26 -2 -44 -15 l-32 -23 24
26 c26 29 45 34 57 15z m2112 -24 c-3 -14 -5 -12 -10 9 -3 19 -2 25 4 19 6 -6
8 -18 6 -28z m1750 11 c-6 -14 -13 -23 -15 -21 -5 5 15 46 22 46 3 0 -1 -11
-7 -25z m206 -22 c8 -19 2 -16 -25 13 -23 25 -23 26 -2 13 13 -7 25 -19 27
-26z m-2054 24 c0 -2 -10 -12 -22 -23 l-23 -19 19 23 c18 21 26 27 26 19z
m883 -24 c-3 -16 -6 -36 -5 -46 0 -9 -3 -15 -9 -12 -5 4 -9 -1 -9 -9 0 -23 17
-28 23 -7 3 12 14 19 32 19 17 0 22 -3 15 -8 -7 -5 -10 -16 -6 -25 5 -13 2
-16 -9 -11 -9 3 -13 2 -10 -3 3 -5 1 -13 -5 -16 -6 -4 -9 -1 -8 7 2 7 -4 12
-14 10 -9 -1 -19 2 -23 8 -3 5 -39 11 -78 12 l-72 2 69 3 68 4 21 49 c23 56
31 64 20 23z m-702 0 c13 -16 12 -17 -3 -4 -17 13 -22 21 -14 21 2 0 10 -8 17
-17z m-2256 -31 c-3 -3 -11 0 -18 7 -9 10 -8 11 6 5 10 -3 15 -9 12 -12z m-34
-10 c-7 -2 -18 1 -23 6 -8 8 -4 9 13 5 13 -4 18 -8 10 -11z m1099 -20 c-15
-13 -33 -16 -63 -13 l-42 5 47 6 c26 3 50 9 54 13 4 4 12 7 17 7 5 0 -1 -8
-13 -18z m1127 -37 c8 3 13 0 11 -6 -2 -6 -7 -10 -11 -10 -4 1 -13 1 -19 1 -8
0 -13 15 -14 38 l-1 37 10 -33 c7 -22 15 -31 24 -27z m1934 38 c13 -16 12 -17
-3 -4 -10 7 -18 15 -18 17 0 8 8 3 21 -13z m-3508 -10 c-7 -2 -19 -2 -25 0 -7
3 -2 5 12 5 14 0 19 -2 13 -5z m284 1 c-3 -3 -12 -4 -19 -1 -8 3 -5 6 6 6 11
1 17 -2 13 -5z m1449 -12 c-10 -2 -22 0 -28 6 -6 6 0 7 19 4 21 -5 23 -7 9
-10z m1533 -22 c0 -10 -3 -8 -9 5 -12 27 -12 43 0 25 5 -8 9 -22 9 -30z
m-2232 24 c-3 -3 -12 -4 -19 -1 -8 3 -5 6 6 6 11 1 17 -2 13 -5z m200 0 c-3
-3 -12 -4 -19 -1 -8 3 -5 6 6 6 11 1 17 -2 13 -5z m50 0 c-3 -3 -12 -4 -19 -1
-8 3 -5 6 6 6 11 1 17 -2 13 -5z m65 -6 c-5 -5 -19 -5 -33 1 -22 8 -22 9 9 9
19 -1 29 -5 24 -10z m2214 -6 c-10 -2 -22 0 -28 6 -6 6 0 7 19 4 21 -5 23 -7
9 -10z m-899 2 c-3 -3 -12 -4 -19 -1 -8 3 -5 6 6 6 11 1 17 -2 13 -5z m441 -1
c-10 -2 -26 -2 -35 0 -10 3 -2 5 17 5 19 0 27 -2 18 -5z m650 0 c-16 -2 -40
-2 -55 0 -16 2 -3 4 27 4 30 0 43 -2 28 -4z m-4623 -13 c-3 -5 -12 -10 -18
-10 -7 0 -6 4 3 10 19 12 23 12 15 0z m2495 -23 c0 -5 -4 -5 -10 -2 -5 3 -10
14 -10 23 0 15 2 15 10 2 5 -8 10 -19 10 -23z m1683 20 c7 4 7 1 -1 -9 -9 -11
-10 -18 -2 -23 5 -3 10 -1 10 5 0 6 5 8 10 5 6 -4 8 -10 5 -15 -3 -4 4 -19 15
-31 11 -13 18 -17 15 -9 -8 24 33 22 46 -1 14 -26 4 -36 -17 -18 -15 12 -17
12 -12 -1 2 -8 14 -19 26 -25 12 -5 22 -14 22 -19 0 -5 10 -21 23 -35 12 -14
-11 3 -50 38 -85 74 -122 120 -115 141 4 11 7 11 10 2 2 -6 9 -9 15 -5z m-837
-39 c4 -7 3 -8 -4 -4 -8 5 -12 0 -12 -13 0 -12 -4 -21 -10 -21 -5 0 -7 6 -4
14 3 8 0 24 -6 36 -11 20 -10 21 9 11 11 -6 23 -16 27 -23z m-857 -4 c21 -27
21 -27 21 -4 0 13 3 20 7 17 3 -4 13 -1 22 6 9 6 3 -6 -14 -28 -16 -22 -37
-46 -47 -53 -21 -15 -32 -27 -53 -57 l-14 -20 1 20 c0 11 0 25 -2 30 -1 6 -2
32 -1 58 1 44 2 47 17 33 17 -18 28 -21 19 -6 -7 12 2 30 15 30 5 0 18 -12 29
-26z m796 -21 l35 -38 21 25 c11 14 18 19 14 13 -3 -7 0 -13 7 -13 7 -1 2 -7
-10 -14 l-24 -13 48 -41 c26 -23 45 -44 43 -46 -2 -3 -45 33 -94 79 -50 46
-87 84 -83 85 4 0 23 -17 43 -37z m1626 14 c19 -12 70 -45 114 -72 44 -27 86
-55 93 -62 7 -7 19 -13 26 -13 8 0 19 -7 26 -15 21 -25 1 -17 -68 29 -37 24
-99 63 -138 87 -107 66 -110 68 -98 68 6 1 26 -9 45 -22z"/>
<path d="M7650 3371 c0 -6 4 -13 10 -16 6 -3 7 1 4 9 -7 18 -14 21 -14 7z"/>
<path d="M7612 3356 c7 -8 15 -12 17 -11 5 6 -10 25 -20 25 -5 0 -4 -6 3 -14z"/>
<path d="M7662 3320 c0 -14 2 -19 5 -12 2 6 2 18 0 25 -3 6 -5 1 -5 -13z"/>
<path d="M9368 3483 c6 -2 18 -2 25 0 6 3 1 5 -13 5 -14 0 -19 -2 -12 -5z"/>
<path d="M9147 3466 c-3 -8 3 -36 13 -63 l18 -48 58 -1 c58 -2 58 -1 14 6 -25
4 -39 8 -31 8 10 2 11 5 2 16 -9 10 -4 19 21 40 21 17 26 26 16 26 -8 0 -22
-10 -30 -22 -13 -20 -17 -21 -32 -9 -21 18 -21 32 2 24 12 -4 10 1 -7 15 -28
26 -37 27 -44 8z"/>
<path d="M9205 3470 c3 -5 8 -10 11 -10 2 0 4 5 4 10 0 6 -5 10 -11 10 -5 0
-7 -4 -4 -10z"/>
<path d="M9390 3466 c0 -2 14 -6 30 -8 17 -3 30 -1 30 4 0 4 -13 8 -30 8 -16
0 -30 -2 -30 -4z"/>
<path d="M9132 3419 c6 -16 12 -28 14 -26 5 5 -13 57 -20 57 -3 0 0 -14 6 -31z"/>
<path d="M9285 3440 c4 -6 11 -8 16 -5 14 9 11 15 -7 15 -8 0 -12 -5 -9 -10z"/>
<path d="M9356 3414 c-3 -9 -12 -14 -19 -11 -6 2 -21 -5 -32 -16 -20 -20 -20
-20 3 -14 18 4 22 2 18 -9 -4 -11 3 -13 37 -9 56 7 97 26 97 45 0 12 -2 12 -8
2 -5 -8 -16 -10 -27 -6 -13 5 -16 4 -11 -4 4 -7 3 -12 -2 -12 -6 0 -12 7 -16
15 -3 9 -12 12 -23 9 -16 -5 -16 -4 1 10 16 13 17 16 4 16 -9 0 -19 -7 -22
-16z m4 -34 c0 -5 -5 -10 -11 -10 -5 0 -7 5 -4 10 3 6 8 10 11 10 2 0 4 -4 4
-10z"/>
<path d="M9287 3409 c7 -7 15 -10 18 -7 3 3 -2 9 -12 12 -14 6 -15 5 -6 -5z"/>
<path d="M9555 3390 c3 -5 11 -10 16 -10 6 0 7 5 4 10 -3 6 -11 10 -16 10 -6
0 -7 -4 -4 -10z"/>
<path d="M9240 3380 c0 -5 5 -10 11 -10 5 0 7 5 4 10 -3 6 -8 10 -11 10 -2 0
-4 -4 -4 -10z"/>
<path d="M6353 2625 c0 -22 2 -30 4 -17 2 12 2 30 0 40 -3 9 -5 -1 -4 -23z"/>
<path d="M6331 2573 c-1 -6 4 -15 10 -19 6 -3 8 -16 5 -28 -3 -11 -1 -28 4
-36 7 -10 10 2 10 40 0 35 -3 50 -9 41 -7 -11 -9 -11 -14 0 -3 9 -6 10 -6 2z"/>
<path d="M4819 2531 c17 -23 21 -44 21 -105 l0 -76 65 0 c77 0 122 19 131 56
4 14 9 22 13 17 3 -4 12 -9 19 -10 17 -4 15 51 -3 87 -24 47 -61 60 -170 60
l-96 0 20 -29z"/>
<path d="M3641 2384 c-1 -42 -9 -94 -21 -129 -11 -32 -20 -62 -20 -67 0 -4 18
-8 41 -8 25 0 52 -8 70 -21 16 -11 29 -17 29 -12 0 4 -22 76 -49 158 l-49 150
-1 -71z"/>
<path d="M7430 2380 c0 -46 -8 -96 -20 -130 -11 -30 -19 -58 -20 -62 0 -5 19
-8 43 -8 26 0 51 -8 67 -20 14 -11 28 -20 31 -20 6 0 -49 177 -85 275 l-15 40
-1 -75z"/>
<path d="M7160 2409 c0 -5 5 -7 10 -4 6 3 10 8 10 11 0 2 -4 4 -10 4 -5 0 -10
-5 -10 -11z"/>
<path d="M8932 2201 c0 -17 1 -31 3 -31 7 0 12 39 5 49 -4 7 -7 -1 -8 -18z"/>
<path d="M2086 2393 c-6 -14 -5 -15 5 -6 7 7 10 15 7 18 -3 3 -9 -2 -12 -12z"/>
<path d="M2056 2364 c-8 -22 -4 -25 11 -9 7 8 9 16 4 19 -5 3 -12 -1 -15 -10z"/>
<path d="M2643 2130 c0 -25 2 -35 4 -22 2 12 2 32 0 45 -2 12 -4 2 -4 -23z"/>
<path d="M11973 2082 c23 -24 27 -36 27 -89 l0 -62 125 -3 c142 -3 133 -10
111 87 -21 88 -34 95 -174 95 l-116 0 27 -28z"/>
<path d="M13058 2537 c19 -20 22 -35 22 -106 l0 -83 79 3 c86 4 121 23 121 63
0 12 4 17 8 11 30 -42 44 22 16 76 -22 44 -68 59 -175 59 l-92 0 21 -23z"/>
<path d="M14790 2540 c-17 -11 10 -19 34 -10 19 6 19 7 -1 12 -11 3 -26 2 -33
-2z"/>
<path d="M930 1919 c0 -5 5 -7 10 -4 6 3 10 8 10 11 0 2 -4 4 -10 4 -5 0 -10
-5 -10 -11z"/>
<path d="M6812 1142 c0 -9 -8 -37 -17 -62 -23 -61 -18 -224 8 -264 22 -33 52
-32 79 4 19 26 28 134 19 230 -3 31 -1 44 7 43 8 -2 9 3 1 21 -8 16 -17 22
-30 19 -21 -6 -27 13 -7 19 7 3 -4 5 -24 6 -29 1 -37 -2 -36 -16z"/>
<path d="M7664 1158 c-3 -4 -3 -12 0 -17 3 -5 -2 -24 -12 -42 -13 -26 -17 -59
-17 -134 0 -135 23 -187 75 -170 32 10 45 63 45 180 0 91 -3 116 -18 139 -10
15 -16 30 -13 33 3 3 11 -6 17 -21 7 -14 16 -26 21 -26 5 0 0 13 -12 30 -13
18 -26 27 -35 23 -8 -3 -15 -1 -15 4 0 12 -29 13 -36 1z"/>
<path d="M8412 1163 c-6 -3 -10 -9 -6 -14 3 -5 -3 -31 -13 -57 -13 -33 -18
-72 -17 -132 0 -97 16 -156 44 -165 57 -18 86 60 78 211 -3 56 -1 95 5 97 5 1
1 9 -9 17 -16 13 -17 13 -9 0 8 -13 7 -13 -8 -1 -14 11 -15 16 -5 29 11 13 10
14 -2 10 -8 -3 -22 -2 -30 2 -8 4 -21 5 -28 3z"/>
<path d="M9153 1163 c-7 -2 -10 -10 -7 -18 3 -7 0 -23 -6 -35 -36 -68 -30
-264 9 -304 29 -29 66 -10 80 41 13 47 14 197 2 240 -6 21 -6 35 0 39 13 8
-10 36 -25 31 -6 -3 -18 -1 -26 3 -8 4 -20 5 -27 3z m72 -23 c3 -5 -1 -10 -10
-10 -9 0 -13 5 -10 10 3 6 8 10 10 10 2 0 7 -4 10 -10z"/>
<path d="M6056 986 l-29 -38 41 3 c22 3 38 1 36 -3 -2 -3 0 -9 6 -13 16 -10
12 21 -4 35 -8 6 -16 21 -18 33 -3 18 -6 16 -32 -17z"/>
<path d="M990 1260 c8 -5 20 -10 25 -10 6 0 3 5 -5 10 -8 5 -19 10 -25 10 -5
0 -3 -5 5 -10z"/>
<path d="M1258 1223 c12 -2 32 -2 45 0 12 2 2 4 -23 4 -25 0 -35 -2 -22 -4z"/>
<path d="M9760 1096 c0 -9 5 -16 10 -16 6 0 10 4 10 9 0 6 -4 13 -10 16 -5 3
-10 -1 -10 -9z"/>
<path d="M9731 1084 c0 -11 3 -14 6 -6 3 7 2 16 -1 19 -3 4 -6 -2 -5 -13z"/>
<path d="M9675 1072 c3 -7 5 -16 5 -18 0 -13 18 -1 23 15 3 15 0 19 -14 18
-12 -1 -17 -7 -14 -15z"/>
<path d="M9746 1054 c-6 -16 2 -18 22 -5 11 7 11 9 -1 14 -9 3 -18 -1 -21 -9z"/>
<path d="M9798 1053 c7 -3 16 -2 19 1 4 3 -2 6 -13 5 -11 0 -14 -3 -6 -6z"/>
<path d="M9780 1010 c7 -14 7 -20 0 -20 -5 0 -10 -5 -10 -11 0 -5 6 -7 13 -3
6 4 9 4 5 -1 -4 -4 -2 -15 5 -24 10 -14 10 -14 -3 -5 -14 11 -60 2 -60 -11 0
-16 22 -45 30 -40 5 3 12 0 16 -6 4 -8 3 -9 -4 -5 -17 10 -14 -5 6 -37 10 -15
22 -24 26 -20 4 4 4 -1 0 -12 -5 -13 14 -60 67 -162 41 -78 79 -143 85 -143 6
0 28 11 47 25 20 13 36 20 34 14 -1 -6 17 -13 41 -15 36 -3 42 -1 44 16 0 11
1 25 2 32 1 7 -10 15 -24 19 -24 7 -24 7 -2 8 25 1 28 11 10 29 -9 9 -9 12 0
12 22 0 12 15 -21 30 -29 14 -35 14 -64 -1 -30 -15 -31 -17 -17 -37 13 -19 13
-22 0 -22 -8 0 -16 -6 -19 -12 -2 -8 -8 -9 -13 -4 -5 5 -4 11 4 13 16 6 15 28
-1 42 -10 8 -17 7 -26 -2 -11 -9 -11 -7 0 10 7 12 17 19 23 16 5 -4 7 3 4 15
-3 12 -2 22 2 24 5 2 -3 12 -18 22 -21 16 -24 17 -19 4 3 -10 -1 -19 -10 -22
-14 -6 -14 -8 1 -25 15 -17 15 -19 1 -25 -21 -8 -30 19 -17 49 9 20 9 23 -3
18 -10 -3 -15 2 -15 17 0 17 -5 21 -19 17 -14 -3 -18 -1 -14 9 3 9 13 12 25 8
16 -5 19 -3 12 7 -6 12 -5 12 8 1 13 -10 17 -10 22 3 4 10 -1 15 -15 15 -11 0
-22 7 -25 15 -4 8 -12 15 -19 15 -7 0 -15 6 -18 13 -3 9 -9 9 -24 0 -16 -9
-20 -8 -20 2 0 8 3 14 6 13 20 -2 31 4 31 17 0 11 -8 13 -30 9 -19 -4 -30 -2
-30 4 0 6 6 9 13 6 8 -3 18 6 25 21 7 15 8 24 2 20 -5 -3 -10 -1 -10 5 0 6 -5
8 -10 5 -13 -8 -8 18 5 27 6 4 2 8 -7 8 -10 0 -18 7 -18 15 0 8 -5 15 -10 15
-7 0 -7 -6 0 -20z m155 -438 c-8 -9 -25 20 -18 31 3 5 10 2 15 -7 6 -10 7 -20
3 -24z m175 -9 c0 -13 -5 -23 -11 -23 -6 0 -8 7 -4 18 5 14 4 15 -6 5 -21 -21
-42 -16 -29 6 14 28 50 23 50 -6z"/>
<path d="M9860 1020 c0 -6 14 -23 32 -39 26 -23 35 -27 50 -17 10 6 18 15 18
20 0 5 -3 6 -6 3 -4 -3 -16 -2 -27 4 -14 8 -18 8 -13 0 4 -6 3 -11 -3 -11 -5
0 -12 9 -16 19 -6 20 -35 37 -35 21z"/>
<path d="M9880 956 c0 -9 -5 -16 -12 -16 -9 0 -9 -3 0 -12 9 -9 9 -15 0 -27
-7 -9 2 -3 20 13 36 34 39 38 15 29 -10 -4 -14 -2 -9 5 3 6 2 13 -4 17 -5 3
-10 -1 -10 -9z"/>
<path d="M9930 941 c-16 -30 -12 -36 11 -15 21 19 21 19 18 0 -2 -10 2 -21 10
-24 8 -2 11 0 7 6 -4 6 3 8 16 5 23 -4 23 -4 3 12 -11 9 -19 21 -17 26 4 18
-37 9 -48 -10z"/>
<path d="M9885 871 c-7 -12 12 -24 25 -16 11 7 4 25 -10 25 -5 0 -11 -4 -15
-9z"/>
<path d="M10048 713 c7 -3 16 -2 19 1 4 3 -2 6 -13 5 -11 0 -14 -3 -6 -6z"/>
<path d="M10120 642 c0 -5 7 -13 16 -16 10 -4 14 -1 12 6 -5 15 -28 23 -28 10z"/>
<path d="M10140 596 c0 -8 5 -18 10 -21 6 -3 10 3 10 14 0 12 -4 21 -10 21 -5
0 -10 -6 -10 -14z"/>
<path d="M10020 509 c0 -5 -7 -5 -17 -2 -11 4 -14 3 -9 -5 5 -8 2 -10 -8 -6
-20 8 -20 -6 -3 -31 10 -12 16 -14 21 -7 4 7 12 12 17 12 6 0 4 -6 -4 -14 -16
-16 -12 -62 6 -73 14 -8 47 34 40 52 -3 8 2 18 11 21 9 3 16 10 16 15 0 4 -7
6 -15 3 -8 -4 -15 -1 -15 6 0 8 -9 10 -26 6 -17 -5 -23 -3 -19 4 4 6 17 10 28
9 38 -2 61 1 53 8 -10 10 -76 11 -76 2z"/>
<path d="M10120 510 c0 -5 5 -10 11 -10 5 0 7 5 4 10 -3 6 -8 10 -11 10 -2 0
-4 -4 -4 -10z"/>
<path d="M10160 490 c13 -9 13 -11 0 -20 -8 -5 -10 -10 -4 -10 11 0 34 20 34
30 0 3 -10 7 -22 7 -18 2 -20 0 -8 -7z"/>
<path d="M5208 479 c15 -5 21 -13 16 -21 -4 -7 -3 -9 1 -5 20 18 13 37 -13 36
-27 0 -27 0 -4 -10z"/>
<path d="M5398 449 c-2 -6 -16 -11 -30 -11 -20 0 -25 -4 -21 -16 4 -10 2 -13
-5 -8 -18 11 -25 -14 -12 -40 10 -18 16 -21 27 -13 7 6 10 15 7 20 -10 16 9 9
23 -8 12 -16 13 -16 8 8 -4 17 -1 30 9 38 17 15 22 41 7 41 -5 0 -11 -5 -13
-11z"/>
<path d="M5176 417 c-7 -27 -4 -30 17 -14 13 10 14 14 2 24 -10 9 -14 8 -19
-10z"/>
<path d="M5305 419 c-4 -6 -5 -12 -2 -15 2 -3 7 2 10 11 7 17 1 20 -8 4z"/>
<path d="M5233 373 c-3 -10 -8 -21 -9 -24 -2 -4 3 -12 10 -19 12 -9 17 -7 25
9 12 21 5 51 -10 51 -5 0 -12 -8 -16 -17z"/>
<path d="M5152 358 c5 -13 48 -31 48 -20 0 4 -12 12 -26 19 -17 8 -24 8 -22 1z"/>
<path d="M5132 305 c-6 -14 -16 -25 -21 -25 -5 0 -12 -7 -15 -16 -4 -11 -2
-15 8 -11 10 4 13 1 9 -9 -8 -21 15 -17 27 5 5 11 10 32 10 47 0 21 3 24 13
15 15 -12 30 -4 21 10 -11 18 -41 8 -52 -16z"/>
<path d="M7723 152 c-7 -4 -9 -13 -4 -20 6 -10 13 -8 32 7 22 19 23 20 4 21
-11 0 -25 -4 -32 -8z"/>
</g>
</svg>
